<svg width="46" height="40" viewBox="0 0 46 40" fill="none" xmlns="http://www.w3.org/2000/svg">
<g clip-path="url(#clip0)">
<path fill-rule="evenodd" clip-rule="evenodd" d="M19.8145 3.55619C22.4572 3.45589 25.1036 3.53003 27.7367 3.77812C29.0142 3.76208 30.2833 3.98837 31.4781 4.44522C33.1265 5.2208 34.4513 6.55861 35.2194 8.22328C35.6712 9.42947 35.8949 10.7106 35.8787 12.0001C35.8787 14.0001 36.0985 14.6672 36.0985 20.0001C36.1978 22.6687 36.1244 25.3411 35.8787 28.0001C35.8946 29.2901 35.6705 30.5716 35.2181 31.7781C34.4501 33.4428 33.1253 34.7806 31.4768 35.5562C30.282 36.013 29.0129 36.2393 27.7354 36.2233C25.7549 36.2233 25.0943 36.4452 19.8132 36.4452C17.1705 36.5455 14.5241 36.4714 11.891 36.2233C10.6135 36.2393 9.34443 36.013 8.14965 35.5562C6.50117 34.7806 5.17636 33.4428 4.40832 31.7781C3.95678 30.5714 3.73357 29.2899 3.75026 28.0001C3.75026 26.0001 3.53049 25.333 3.53049 20.0001C3.43117 17.3314 3.50458 14.659 3.75026 12.0001C3.73438 10.7101 3.95847 9.4285 4.41087 8.22199C4.79483 7.39807 5.31559 6.64657 5.9506 6.00006C6.46656 5.22276 7.25119 4.66786 8.15093 4.44393C9.34579 3.98752 10.6149 3.76167 11.8923 3.77812C14.5254 3.53003 17.1718 3.45589 19.8145 3.55619V3.55619ZM19.8145 5.80162e-05C17.0986 -0.0978572 14.3792 -0.0237334 11.6725 0.221993C10.0185 0.218254 8.37777 0.51954 6.83099 1.11103C5.49528 1.55063 4.28631 2.31344 3.30943 3.33296C2.29982 4.31943 1.54443 5.54027 1.1091 6.88909C0.418024 8.41962 0.115449 10.0999 0.228707 11.7781C-0.0146312 14.5114 -0.0880344 17.2575 0.00892893 20.0001C-0.0880344 22.7426 -0.0146312 25.4887 0.228707 28.222C0.225004 29.8922 0.52336 31.5491 1.1091 33.111C1.54443 34.4598 2.29982 35.6807 3.30943 36.6672C4.28631 37.6867 5.49528 38.4495 6.83099 38.8891C8.37777 39.4806 10.0185 39.7819 11.6725 39.7781C14.3792 40.0238 17.0986 40.098 19.8145 40.0001C22.5304 40.098 25.2498 40.0238 27.9565 39.7781C29.6105 39.7819 31.2512 39.4806 32.798 38.8891C34.1236 38.4279 35.3277 37.6679 36.3192 36.6667C37.3106 35.6656 38.0632 34.4496 38.5199 33.111C39.1056 31.5491 39.404 29.8922 39.4003 28.222C39.4003 26.0001 39.6201 25.333 39.6201 20.0001C39.717 17.2575 39.6436 14.5114 39.4003 11.7781C39.404 10.1079 39.1056 8.45106 38.5199 6.88909C38.0846 5.54027 37.3292 4.31943 36.3196 3.33296C35.3427 2.31344 34.1337 1.55063 32.798 1.11103C31.2512 0.51954 29.6105 0.218254 27.9565 0.221993C25.2498 -0.0237334 22.5304 -0.0978572 19.8145 5.80162e-05V5.80162e-05ZM19.8145 9.77812C18.4794 9.75686 17.1536 10.0067 15.916 10.5129C14.6784 11.0191 13.5541 11.7712 12.6099 12.7247C11.6657 13.6782 10.9208 14.8135 10.4196 16.0633C9.91833 17.3131 9.67088 18.6518 9.69193 20.0001C9.69193 22.0218 10.2856 23.9981 11.3979 25.6791C12.5102 27.36 14.0911 28.6702 15.9408 29.4439C17.7904 30.2176 19.8257 30.42 21.7893 30.0256C23.7529 29.6312 25.5566 28.6576 26.9722 27.2281C28.3879 25.7985 29.352 23.9771 29.7426 21.9943C30.1331 20.0114 29.9327 17.9561 29.1665 16.0883C28.4004 14.2205 27.1029 12.624 25.4383 11.5008C23.7736 10.3776 21.8165 9.77812 19.8145 9.77812V9.77812ZM19.8145 26.6672C18.943 26.6834 18.0773 26.5221 17.269 26.1928C16.4606 25.8635 15.7264 25.373 15.1101 24.7507C14.4937 24.1283 14.008 23.3868 13.6819 22.5706C13.3558 21.7543 13.1961 20.8801 13.2122 20.0001C13.1961 19.12 13.3558 18.2458 13.6819 17.4295C14.008 16.6133 14.4937 15.8718 15.1101 15.2494C15.7264 14.6271 16.4606 14.1366 17.269 13.8073C18.0773 13.478 18.943 13.3167 19.8145 13.333C20.686 13.3167 21.5517 13.478 22.36 13.8073C23.1683 14.1366 23.9026 14.6271 24.5189 15.2494C25.1352 15.8718 25.621 16.6133 25.9471 17.4295C26.2731 18.2458 26.4329 19.12 26.4168 20.0001C26.4329 20.8801 26.2731 21.7543 25.9471 22.5706C25.621 23.3868 25.1352 24.1283 24.5189 24.7507C23.9026 25.373 23.1683 25.8635 22.36 26.1928C21.5517 26.5221 20.686 26.6834 19.8145 26.6672ZM30.3779 6.88909C29.8992 6.88909 29.4313 7.03242 29.0333 7.30096C28.6354 7.56949 28.3252 7.95117 28.142 8.39773C27.9588 8.84429 27.9109 9.33567 28.0043 9.80974C28.0977 10.2838 28.3281 10.7193 28.6666 11.061C29.0051 11.4028 29.4363 11.6356 29.9057 11.7299C30.3752 11.8242 30.8618 11.7758 31.304 11.5908C31.7462 11.4058 32.1242 11.0926 32.3901 10.6907C32.6561 10.2888 32.798 9.81631 32.798 9.33296C32.7923 8.68658 32.5355 8.06829 32.0829 7.61121C31.6303 7.15413 31.018 6.89481 30.3779 6.88909" fill="white"/>
</g>
<defs>
<clipPath id="clip0">
<rect width="46" height="40" rx="1" fill="white"/>
</clipPath>
</defs>
</svg>
