<svg width="46" height="46" viewBox="0 0 46 46" fill="none" xmlns="http://www.w3.org/2000/svg">
<path d="M10.7077 14.7987H1.47314C1.06329 14.7987 0.731201 15.1309 0.731201 15.5406V45.2074C0.731201 45.6172 1.06329 45.9493 1.47314 45.9493H10.7077C11.1176 45.9493 11.4496 45.6172 11.4496 45.2074V15.5406C11.4496 15.1309 11.1176 14.7987 10.7077 14.7987Z" fill="white"/>
<path d="M6.09367 0.0506592C2.73359 0.0506592 0 2.78128 0 6.13765C0 9.4955 2.73359 12.2272 6.09367 12.2272C9.45107 12.2272 12.1824 9.49535 12.1824 6.13765C12.1826 2.78128 9.45107 0.0506592 6.09367 0.0506592Z" fill="white"/>
<path d="M34.1964 14.0613C30.4874 14.0613 27.7457 15.6557 26.0827 17.4674V15.5406C26.0827 15.1309 25.7506 14.7986 25.3408 14.7986H16.4971C16.0872 14.7986 15.7551 15.1309 15.7551 15.5406V45.2073C15.7551 45.6171 16.0872 45.9492 16.4971 45.9492H25.7115C26.1213 45.9492 26.4534 45.6171 26.4534 45.2073V30.5291C26.4534 25.5829 27.7969 23.656 31.2448 23.656C34.9999 23.656 35.2983 26.7451 35.2983 30.7836V45.2074C35.2983 45.6173 35.6304 45.9494 36.0402 45.9494H45.258C45.6679 45.9494 46 45.6173 46 45.2074V28.9347C46 21.5799 44.5976 14.0613 34.1964 14.0613Z" fill="white"/>
</svg>
