<svg width="46" height="46" viewBox="0 0 46 46" fill="none" xmlns="http://www.w3.org/2000/svg">
<path fill-rule="evenodd" clip-rule="evenodd" d="M8.58 37.99C18.816 37.99 24.386 28.2785 24.386 19.7813V18.9138C25.4379 17.9914 26.3531 16.8787 27.096 15.619C26.0865 16.1234 25.0237 16.472 23.935 16.6558C25.0548 15.846 25.9039 14.6235 26.344 13.1871C25.2564 13.8849 24.0918 14.41 22.882 14.7481C22.3723 14.0879 21.7458 13.5609 21.0447 13.2027C20.3435 12.8444 19.584 12.6631 18.817 12.671C17.3467 12.6966 15.9428 13.3808 14.903 14.5787C13.8632 15.7766 13.2692 17.3939 13.247 19.0878C13.2135 19.5556 13.2649 20.0264 13.398 20.4702C11.1828 20.3472 9.01607 19.6802 7.04289 18.5139C5.06971 17.3476 3.33569 15.709 1.957 13.7078C1.46158 14.712 1.20204 15.8476 1.204 17.0026C1.22398 18.0509 1.45136 19.08 1.86882 20.0117C2.28629 20.9435 2.88283 21.7531 3.613 22.3791C2.70811 22.358 1.8246 22.0585 1.054 21.5116V21.5116C1.05054 22.9983 1.50101 24.4391 2.32659 25.5818C3.15217 26.7246 4.30027 27.4964 5.57 27.7624C5.07997 27.9148 4.57155 27.9736 4.065 27.9364C3.70697 27.9641 3.34788 27.9048 3.011 27.7624C3.37877 29.048 4.0824 30.1712 5.02559 30.9783C5.96878 31.7855 7.10543 32.2371 8.28 32.2714C6.30146 34.0522 3.86674 35.0281 1.356 35.0466C0.898553 35.0734 0.440413 35.013 0 34.8681C2.49092 36.952 5.50195 38.0476 8.58 37.99Z" fill="white"/>
</svg>
